<svg width="31" height="31" viewBox="0 0 31 31" fill="none" xmlns="http://www.w3.org/2000/svg">
<path d="M6.91296 7.99801L7.74996 11.563L6.91296 15.1125L10.0285 17.0345L11.935 20.15L15.5 19.313L19.065 20.15L20.9715 17.0345L24.087 15.1125L23.25 11.563L24.087 7.99801L20.987 6.07601L19.065 2.96051L15.5 3.81301L11.9505 2.97601L10.013 6.07601L6.91296 7.99801ZM15.5155 17.825C13.8711 17.825 12.2941 17.1718 11.1314 16.0091C9.96868 14.8463 9.31546 13.2694 9.31546 11.625C9.31546 9.98067 9.96868 8.40367 11.1314 7.24095C12.2941 6.07822 13.8711 5.42501 15.5155 5.42501C18.9255 5.42501 21.7 8.19951 21.7 11.6095C21.7 15.0505 18.9255 17.825 15.5155 17.825ZM15.4845 16.275C12.9115 16.275 10.85 14.198 10.85 11.625C10.85 9.06751 12.9115 6.97501 15.4845 6.97501C18.0575 6.97501 20.15 9.06751 20.15 11.625C20.15 14.198 18.0575 16.275 15.4845 16.275ZM21.4365 17.98L19.4525 21.452L16.2285 20.7235L20.15 29.76L22.32 26.35H26.195L21.4365 17.98ZM9.50146 18.0885L11.439 21.576L14.7405 20.7855L10.85 29.76L8.67996 26.35H4.80496L9.50146 18.0885Z" fill="black"/>
</svg>
